<svg height="512" viewBox="0 0 61 60" width="512" xmlns="http://www.w3.org/2000/svg"><g id="008---Vegan-Chef" fill="none"><g id="Icons" transform="translate(0 1)"><path id="Shape" d="m45 48v8c0 1.1045695-.8954305 2-2 2h-26c-1.1045695 0-2-.8954305-2-2v-8z" fill="#545c60"/><path id="Shape" d="m42 48v8c0 1.1045695-.8954305 2-2 2h-23c-1.1045695 0-2-.8954305-2-2v-8z" fill="#7f8e94"/><path id="Shape" d="m45 38v11h-30v-11c-5.19427933.0091665-9.96668187-2.8582665-12.39731845-7.4487596-2.43063657-4.5904932-2.11992728-10.1494012.80713268-14.4404315 2.92705997-4.2910304 7.98928207-6.60876741 13.15018577-6.0208089.0188602-.068149.0422454-.13496402.07-.2 1.8273741-5.90069313 7.3060548-9.90637767 13.4830391-9.85799398s11.5922444 4.13939935 13.3269609 10.06799398h.1c5.1872277-.61888483 10.2875399 1.7017691 13.2287686 6.0191204 2.9412288 4.3173514 3.2340551 9.9131419.7595087 14.5138994-2.4745463 4.6007575-7.3047862 7.4410747-12.5282773 7.3669802z" fill="#cfd8dc"/><path id="Shape" d="m58.94 22.77c-.6566814 7.2091624-6.700991 12.7288224-13.94 12.73v13.5h-30v-13.5c-7.23900901-.0011776-13.28331856-5.5208376-13.94-12.73.30128019-3.7487574 2.10981087-7.2151196 5.01221312-9.6067745 2.90240224-2.3916548 6.65057308-3.50415897 10.38778688-3.0832255.15 0 .07.05.17-.19 1.8273741-5.90069313 7.3060548-9.90637767 13.4830391-9.85799398s11.5922444 4.13939935 13.3269609 10.06799398c7.6643927-.8611514 14.5816943 4.638707 15.47 12.3.01.12.03.25.03.37z" fill="#f5f5f5"/><path id="Shape" d="m29.44 26.51c-1.066431 1.5938504-1.5729728 3.4968998-1.44 5.41-.9981472.1150175-2.0072498.0948354-3-.06-6.53-1-9.27-8.25-7.51-13.53.0525765-.1474045.1711379-.2616885.320374-.3088157s.3119293-.0216604.439626.0688157c1.1547645.8148534 2.4769522 1.3614943 3.87 1.6 2.12.37 3.85.79 5.35 2.28 1.2180406 1.2023345 1.9239366 2.8291203 1.97 4.54z" fill="#007900"/><path id="Shape" d="m26.44 26.51c-1.054957 1.5765979-1.5610488 3.4568697-1.44 5.35-6.25-1-8.92-7.48-7.74-12.69 2.26.91 4.89.5 7.21 2.8 1.2180406 1.2023345 1.9239366 2.8291203 1.97 4.54z" fill="#008a00"/><path id="Shape" d="m35 36.35c-1.7435881.5824887-3.5933819.7770242-5.42.57-2.0266221-3.1575312-2.0616199-7.1978354-.09-10.39 1.7-2.37 3.95-3 6.79-3.5 1.5945475-.2852551 3.1048936-.9242477 4.42-1.87.1293394-.0903672.2932225-.1157811.4438562-.0688303s.2710544.1609788.3261438.3088303c1.75 5.51-.68 12.98-6.47 14.95z" fill="#549414"/><path id="Shape" d="m32 36.35c-.7893892.2647774-1.603531.4490482-2.43.55-.9935834-1.4785238-1.5260606-3.2186451-1.53-5 0-2.47.46-4.58 2.21-6.33 2.74-2.74 5.63-2 8.46-3.33 1.29 5.43-1.22 12.24-6.71 14.11z" fill="#60a917"/></g><g id="Layer_2" fill="#000" transform="translate(-1 -1)"><path id="Shape" d="m45.15 11c-2.1123449-6.00471681-7.7845758-10.02229973-14.15-10.02229973s-12.0376551 4.01758292-14.15 10.02229973c-6.96486654-.466832-13.31353522 3.9834806-15.25 10.69-1.32495934 4.3827828-.57560403 9.1307124 2.03477746 12.892389 2.6103815 3.7616766 6.79589564 6.1251149 11.36522254 6.417611v17c0 1.6568542 1.3431458 3 3 3h26c1.6568542 0 3-1.3431458 3-3v-17c8.2842712-.5108634 14.5858634-7.6407288 14.075-15.925s-7.6407288-14.5858634-15.925-14.075zm-1.94 27.7c-.3595416-.1052733-.7477671-.0007518-1.0058552.2708052s-.342742.6645932-.2193303 1.0183193c.1234117.3537262.4341856.6088014.8051855.6608755.7266973.1726822 1.4655065.2896882 2.21.35v9h-3c-.5522847 0-1 .4477153-1 1s.4477153 1 1 1h3v6c0 .5522847-.4477153 1-1 1h-3v-4c0-.5522847-.4477153-1-1-1s-1 .4477153-1 1v4h-7v-4c0-.5522847-.4477153-1-1-1s-1 .4477153-1 1v4h-7v-4c0-.5522847-.4477153-1-1-1s-1 .4477153-1 1v4h-3c-.5522847 0-1-.4477153-1-1v-6h20c.5522847 0 1-.4477153 1-1s-.4477153-1-1-1h-20v-9c.7432044-.0438535 1.4819997-.1441425 2.21-.3.3709999-.0520741.6817738-.3071493.8051855-.6608755.1234117-.3537261.0387578-.7467623-.2193303-1.0183193s-.6463136-.3760785-1.0058552-.2708052c-4.9674024 1.0801817-10.10868258-.8341248-13.16-4.9-6.3-8.32-.75-21.09 10.68-20.85-.2048767.9868881-.3087455 1.9920709-.31 3 0 .5522847.4477153 1 1 1s1-.4477153 1-1c0-7.17970175 5.8202983-13 13-13s13 5.82029825 13 13c0 .5522847.4477153 1 1 1s1-.4477153 1-1c.0014163-1.0075577-.0990953-2.0126744-.3-3 6.6907169-.0884283 12.3809914 4.861508 13.22 11.5.4865749 4.1760165-1.0764544 8.3295264-4.1954332 11.1487179s-7.4087875 3.9559617-11.5145668 3.0512821z"/><path id="Shape" d="m42.43 22.13c-1.43-.49-1.84 1.27-5.37 1.87-2.1792477.1972698-4.2587599 1.0048137-6 2.33-.3881446-1.1695539-1.0458419-2.2314609-1.92-3.1-1.72-1.72-3.68-2.17-5.88-2.55-1.2531544-.2193558-2.4418458-.7146439-3.48-1.45-.3893205-.2655633-.8808126-.3327207-1.3271049-.1813352s-.7954926.5037116-.9428951.9513352c-1.67 5.22.55 12.39 6.4 14.35 1.6639303.5521021 3.4278952.736346 5.17.54.1725938-.0366988.33591-.1081496.48-.21 1.09-.83-.47-3.56 2.33-6.41 1.51-1.52 3.3-1.93 5.48-2.3 1.5133916-.2636619 2.9585467-.8281225 4.25-1.66 1.26 4.92-.92 11.35-6 13.06-1.157638.3876659-2.369216.590158-3.59.6 1.4402154-2.7602224 3.492519-5.1545766 6-7 .3132699-.20088.4890783-.5591024.4563284-.9298021-.0327499-.3706996-.2686403-.69255-.6122769-.8353947-.3436367-.1428448-.7381703-.0830525-1.0240515.1551968-3.2535168 2.3070105-5.7850348 5.4904812-7.3 9.18-.0990048.286464-.0627448.6023721.0985909.8589542.1613358.2565821.430335.4261465.7314091.4610458 1.9726005.2233273 3.9701797.0082034 5.85-.63 6.57-2.21 9-10.32 7.09-16.22-.1531119-.4097531-.478543-.7315277-.89-.88zm-20.13 5c2.1447729 1.5437236 3.9150818 3.5498458 5.18 5.87-.9894111-.0298347-1.9694118-.2015874-2.91-.51-4.38-1.46-6.31-6.95-5.3-11.2 1.1376219.7086113 2.4060811 1.181308 3.73 1.39 1.92.33 3.5.69 4.81 2 .964197.9549782 1.5502758 2.2265916 1.65 3.58-.456048.7216495-.7936514 1.5116414-1 2.34-1.3210073-1.9835998-2.9834306-3.7171248-4.91-5.12-.4473506-.325848-1.074152-.2273506-1.4.22-.325848.4473507-.2273506 1.074152.22 1.4z"/></g></g></svg>